<svg xmlns="http://www.w3.org/2000/svg" width="26" height="26" viewBox="0 0 26 26"><defs><style>.a{fill:none;stroke:#2d64af;stroke-linecap:round;stroke-linejoin:round;stroke-width:3px;}</style></defs><g transform="translate(1.5 1.5)"><path class="a" d="M8.75,3h11.5A5.75,5.75,0,0,1,26,8.75v11.5A5.75,5.75,0,0,1,20.25,26H8.75A5.75,5.75,0,0,1,3,20.25V8.75A5.75,5.75,0,0,1,8.75,3Z" transform="translate(-3 -3)"/><path class="a" d="M22.011,16.2A5,5,0,1,1,17.8,11.989,5,5,0,0,1,22.011,16.2Z" transform="translate(-5.518 -5.482)"/><path class="a" d="M26.25,9.75h0" transform="translate(-8.425 -4.575)"/></g></svg>