<svg xmlns="http://www.w3.org/2000/svg" viewBox="0 0 172.9 46">
	<title>
		Aman Resorts International
	</title>
	<desc>
		Inspiring remote destinations
	</desc>
	<path fill="#313131" fill-rule="evenodd" d="M51 9.1c12.5 27 12.9 29.2 14.1 31.9l.1.2h.1c1.2-2.8 1.4-4.6 14.2-32.1h.3s3.2 36.8 4.4 36.8v.2h-3.8v-.2c.9 0-1.9-26-2-29h-.1c-1.3 3.7-3.3 8-5.7 13.3-1.7 3.7-4 9.4-7 15.9h-.8c-3-6.4-5.3-12.2-7-15.9-2.4-5.3-4.3-9.6-5.7-13.3H52c-.1 3-2.9 29-2 29v.2h-3.8v-.2c1.2 0 4.4-36.8 4.4-36.8h.4zm-35.2 0s13.5 36.8 14.5 36.8v.2h-4v-.2c.5-.2-.1-2.1-3.9-12.1 0 0-6.3-16.8-6.8-18.6-.7 1.8-7.3 18.7-7.3 18.7C4.4 43.8 3.7 45.7 4.2 46v.2H.3V46c1 0 15.1-36.8 15.1-36.8h.4zm98.5 0s13.9 36.8 14.9 36.8v.2h-4.1v-.2c.5-.2-.1-2.1-4.1-12.1 0 0-6.5-16.8-7-18.6-.6 1.8-7.4 18.6-7.4 18.6-4 9.9-4.8 11.8-4.3 12.1v.2h-4v-.2c1 0 15.6-36.8 15.6-36.8h.4zm30.2 2c9.9 11.5 22.2 26 24.3 28.7h.1V25.5c0-11.8-.3-13.7-.6-13.7v-.2h4v.2c-.3 0-.9 2-.9 14.6v19.7h-.4c-9.9-11.5-22.2-26-24.3-28.7h-.1v13.9c0 12.1.3 14.1.6 14.1v.2h-4v-.2c.3 0 .9-2 .9-14.6V11.1h.4zM21.3.1v1h-12v-1h12z" clip-rule="evenodd" />
</svg>
