<svg xmlns="http://www.w3.org/2000/svg" width="169.135" height="200" viewBox="0 0 169.135 200"><defs><style>.a{fill:#2d64af;}</style></defs><path class="a" d="M897.533,168.489a8.587,8.587,0,0,0-1.011-.31,6.623,6.623,0,0,0,1.011.31m3.032.911c-.687-.167-1.366-.349-2.043-.547a5.549,5.549,0,0,1-1.026-.247c1.341.423,2.707.79,4.086,1.092a7.612,7.612,0,0,0-1.017-.3m2.064.47a6.752,6.752,0,0,0,1.045.167,8.364,8.364,0,0,0-1.045-.167m50.276-11.4c.34-.216.786-.489,1.135-.719s.621-.4.627-.421l-1.132.728c-.354.224-.624.4-.63.412m-8.386,4.39c.265-.12,1.423-.706.936-.479-.262.125-1.43.7-.936.479m8.32-4.494a7.388,7.388,0,0,1-.88.572l.022.035,1.783-1.114c.966-.659.93-.641-.925.506m-56.3,9.758a8.692,8.692,0,0,0-1-.336,6.584,6.584,0,0,0,1,.336m-23.189-15.227v0Zm.2-1.109c-.014-.133-.021.171-.025.527.017.045.03.084.04.08a3.216,3.216,0,0,0-.015-.607m150.873-90.224-.124.113c-.067.134-.133.267-.2.4l.131-.207c.066-.1.128-.206.193-.307m1.27-.54c-.162.3-.347.622-.535.953-.22.387-.44.775-.657,1.158-.76,1.3-1.521,2.6-2.328,3.888-.4.643-.818,1.282-1.28,1.925l-.377.487-.342.422q-.34.428-.673.866-.658.874-1.288,1.771a2.041,2.041,0,0,1-.774.563,8.553,8.553,0,0,0-1.087,1.169,3.28,3.28,0,0,0-.622,1.035A19.583,19.583,0,0,1,1014,78.246c-2.6,3.892-5.139,7.863-7.972,11.624-1.262,1.663-2.441,3.556-3.66,5.355-.968,1.439-1.975,2.877-3,4.308-.513.714-1.025,1.434-1.546,2.138l-1.6,2.053q-.815,1.044-1.593,2.1-.827,1.017-1.651,2.028l-1.65,2.027c-.553.676-1.165,1.306-1.76,1.956-1.166,1.232-2.289,2.5-3.509,3.684l-1.8,1.805c-.6.6-1.191,1.209-1.815,1.785-1.245,1.172-2.474,2.353-3.732,3.509q-1.909,1.712-3.8,3.473c-3.219,2.9-6.754,5.629-10.121,8.442-.535.451-1.1.9-1.692,1.346l-1.775,1.317c-.716.547-1.443,1.081-2.169,1.613.174-.144.22-.211.073-.158-2.651,1.528-5,2.785-6.818,3.716-.074.042-.154.083-.241.123-.339.174-.661.336-.958.486.109-.047.222-.1.346-.153-.082.047-.359.176-.676.318-.676.337-1.223.6-1.608.787-.07.1-.138.185-.2.253-.179.205-.32.267-.252-.04l-.219.1.09-.192-.49.23-.717.337-.361.171-.045.021-.023.01-.011.006-.078.031-.187.076c-1.1.415-1.53.555-1.982.709l-2.051.812-.086.034-.106.038-.206.072-.387.136-.7.244c-.87.3-1.539.528-2.372.785l-1.061.383-.007-.016-1.989.587-.264.077-.113.033-.135.034-.545.138-1.1.278-2.2.55-.533.133-.131.032-.028.008-.015,0-.066.012-.262.052-1.01.2c-.351.092-1.034.244-1.929.434l-1.474.308q-.815.152-1.716.3c-1.593.236-3.219.446-4.913.623l.169-.091.744-.412.748-.423.189-.107.067-.042.045-.029.092-.06.368-.238.371-.241.215-.141.185-.128.742-.52.093-.066.057-.042.023-.018.044-.036.178-.146.359-.294c.24-.2.481-.386.741-.617a19.65,19.65,0,0,0,1.413-1.414l.173-.189c.069-.077.125-.146.183-.22.114-.145.216-.289.315-.429s.192-.269.289-.405.2-.274.305-.412l.266-.383.136-.2,0,0h0l-.013.017.008-.01.019-.025.037-.045c.02-.022.029-.037.058-.066.1-.108.229-.226.4-.387a3.755,3.755,0,0,0,.294-.3,1.351,1.351,0,0,0,.306-.6L929,143.2c-.042.051-.085.1-.116.148l-.074.076.016-.02a.472.472,0,0,0,.041-.078.366.366,0,0,0,.02-.06.457.457,0,0,0,.013-.085l-.485-.1a.22.22,0,0,1,.034-.03,2.542,2.542,0,0,1,.248-.3l0,0,0,0,0,0,.017-.007,0-.009.033-.037.01.028a.97.97,0,0,0,.127-.066c.032-.02.06-.043.089-.064l.336-.392c.056-.069.1-.121.131-.165a1.889,1.889,0,0,0,.192-.228l.017.019.051-.072c-.02.016-.034.02-.055.037.006-.01.018-.023.024-.032-.017.008-.034.021-.052.03l-.12-.136a7.16,7.16,0,0,1-.826.846l-.053-.135c.148-.17.286-.33.4-.48.161-.219.3-.417.428-.608.02-.027.038-.056.057-.083l.7-.253-.319-.317-.005-.008.094-.151.7-.13c-.116.184-.233.374-.351.563l.423-.153.041-.369a.674.674,0,0,1,.185-.3c.111-.123.249-.252.375-.394,0,0,.009,0,.057-.051l.054-.055.04-.1a.6.6,0,0,0,.033-.109l.007-.036a.626.626,0,0,0,0-.071.265.265,0,0,1,0-.029l.074-.077c.077-.084.156-.175.238-.274s.165-.2.262-.336c.047-.067.094-.135.144-.222a1.17,1.17,0,0,0,.09-.186l.015-.045a.693.693,0,0,0,.022-.109l0-.039a.571.571,0,0,0,0-.106.743.743,0,0,0-.019-.078l0,0c.1-.186.206-.377.312-.572.141-.329.153-.358.288-.714l.086-.315.021-.079.009-.041.017-.08.007-.04,0-.02.01-.075v-.01l0-.082-.645-.315a.563.563,0,0,0-.565-.438h-.12l-.1.052c-.029.015-.059.035-.09.053l.062-.032-.121.067a.545.545,0,0,0-.062.051.313.313,0,0,0-.032-.011.641.641,0,0,0-.1-.016H931.3a.614.614,0,0,0-.269.066l-.168.061-.1.209a3.29,3.29,0,0,1-.25.445l-.676,1.465c-.032.07-.067.133-.1.2l-.451.4c-.132.114-.261.234-.389.36l-.035-.145-.085.084a.3.3,0,0,1,.043.035.416.416,0,0,1,.045.059c-.076.075-.15.151-.224.231l-.039.036H928.6l0,0-.029,0,0,0-.017,0,0,0a.506.506,0,0,1-.1.016l0,0h0s0-.014-.007-.021l-.008.012a.164.164,0,0,1-.009-.04l.006-.009h-.007l0-.008h.007v0h-.006l-.007-.032h.007l0-.008-.006,0,0-.01h.007a.208.208,0,0,0-.007-.04l0-.015-.009.012a.377.377,0,0,1-.026.034l.009,0-.009.009-.006,0-.006.008h.008l-.022.026h-.006l0,0h.008l-.006.007h0v.006l-.02.025v-.008l-.016.022v.006c-.021.025-.041.056-.062.078l-.005-.015-.006.007,0,.014-.014.012-.006-.012a2.091,2.091,0,0,1-.455.322l.009.01-.044.026.03-.033-.039.023.035-.039.009.011c.126-.139.268-.284.428-.447l0-.018.013-.014h0v0l0,0h.007v0l.015,0q.156-.159.327-.342l-.008-.009.028-.028.018-.01,0,0c.057-.063.114-.128.17-.192l.049-.043-.024.017.029-.031,0,.008.027-.026-.015.017c.038-.031.079-.065.127-.11.119-.1.256-.267.436-.444,0,.016-.007.03-.008.045.023-.026.047-.052.072-.077l.056.04,0,0-.057-.041.01-.011-.017-.011-.01.01-.04-.028.011-.01-.019-.013,0,.018-.089-.061.012-.01-.015-.011,0,0,.017.012.008-.008-.02-.014.015-.028c-.009.008-.015.016-.023.024l-.114-.08,0,.009.112.078,0,0-.11-.077-.007.013-.039-.027.007-.014-.018-.012-.005.014-.058-.041,0,.006-.024-.017a1.807,1.807,0,0,1-.145.264h-.005l0-.006-.076-.022,0-.022.152-.546-.031.028c-.228.212-.386.411-.526.541a1.622,1.622,0,0,1-.255.2l-.036-.022c0-.007.005-.012.009-.02l-.017.015-.059-.037,0,.008.057.034c-.011.011-.024.022-.037.033l-.039-.024,0,.008-.029-.018,0-.008-.14-.085a4.827,4.827,0,0,0,.509-.505l.829-.98.122-.438-1.318,1.268.494-1.094-.247.114a3.474,3.474,0,0,1-.83,1.034l.071.07-.017.008.036.035-.026.013.059.058c-.135.059-.288.145-.484.223a1.41,1.41,0,0,1-.152.052l.057-.049.1-.084-.07.03c.06-.044.115-.088.168-.13l.03-.012c.07-.062.136-.123.2-.181l-.015-.015.021-.02-.007-.006.01-.014.009.008c.1-.092.213-.2.339-.33a2.943,2.943,0,0,0,.483-.679l-.1.047c.031-.058.062-.113.09-.178l.883-2.1-1.618,1.612a13.559,13.559,0,0,1-1.053.973l.01.248a.683.683,0,0,1-.045.267l-.032.028a.763.763,0,0,1-.057.106c-.053.037-.107.072-.161.1l.053-.056c.012-.014.022-.029.033-.044l-.031.027-.164.139c-.062.036-.124.068-.188.1v0l-.367-.16a2.163,2.163,0,0,1,.29-.3l.153-.026-.042-.052-.076.043a.549.549,0,0,0,.036-.043l.034-.008-.014-.017.011-.021.036.027a4.409,4.409,0,0,0,.42-.287l.033-.028-.005-.345-.555.1c-.2.037-.312.06-.321.056a1.013,1.013,0,0,1,.312-.1l.42-.109-.425.085a4.2,4.2,0,0,0-1.172.422,7.439,7.439,0,0,0-.737.456l-.854.609-.3.211-.147.1-.076.049h0l-.042.021-.911.444c-1.428.57-1.957.742-2.415.957-.44.2-.888.4-2.163.99l-.03.5-.313.146-.074.038-.1-.1-.014.024c-.034.057-.073.122-.109.181-.182.089-.364.177-.544.269-.081.041-.165.079-.248.117l-.046-.054.22-.32.228-.38c.07-.03.147-.065.234-.106l-.092-.088a.092.092,0,0,1-.015-.018c.028-.047.057-.1.088-.146l.7-.153-.069.115.187-.089v-.008a.489.489,0,0,1,.153-.24c.1-.11.241-.229.388-.389l.075-.083.032-.1a.776.776,0,0,0,.029-.147.61.61,0,0,0,0-.116l.072-.078c.077-.087.151-.174.225-.265l.111-.143.116-.169c.036-.056.071-.11.112-.185a.675.675,0,0,0,.1-.289l0-.025a.679.679,0,0,0,0-.081.538.538,0,0,0-.03-.106l.01-.016.033-.06.045-.081c.059-.111.123-.226.189-.348l.012-.023.03-.061,0-.011.02-.049.04-.1c.027-.068.056-.137.085-.208-.042.054-.073.082-.055-.006a.778.778,0,0,1,.023-.089l.019-.062.027-.081c0-.012.006-.026.009-.041.023-.094.078-.331.107-.524l.007-.046v-.006c0-.04,0-.081,0-.128l-.63-.3-.007-.02a.473.473,0,0,0-.157-.189.5.5,0,0,0-.154-.073l-.127-.056-.169.076a1.246,1.246,0,0,0-.126.065.631.631,0,0,0-.07.05.529.529,0,0,1,.087.058c.03-.024.056-.042.055-.037l-.027.017c.145-.078.13-.068.024-.006a.363.363,0,0,0-.045.031.486.486,0,0,1,.07.057.6.6,0,0,1,.1.182l-.017-.006.013,0c-.021-.006-.047-.014-.073-.024a.46.46,0,0,0-.1-.137.291.291,0,0,0-.046-.036l-.019.019-.009-.007a.316.316,0,0,0-.054.069l0,.008-.012,0h0l-.027.053-.078.158-.009.018-.021.039-.021.037c0-.042-.013-.058-.061-.039l-.012.025a.181.181,0,0,1-.034,0h-.013l.017-.031.015-.027.022-.04.008-.013.033-.052.066-.108.05-.079a.557.557,0,0,1,.048-.062.46.46,0,0,0-.148-.033.484.484,0,0,0-.2.035l-.144.043-.081.169-.068.144-.061.1-.08.122-.039.06-.009.014,0,0-.011.013-.087.111-.166.209-.062.076-.066.074-.1.1-.2.418c-.138.124-.252.222-.353.309l-.085-.061.027-.026-.036-.026-.029.025-.023-.016.028-.025-.015-.01c-.008.008-.017.019-.025.027l-.029-.021c.009-.008.017-.018.027-.026l0,0,.014-.013-.075-.054,0-.007.077.056.158-.141.078-.069.019-.017.006-.007.038-.036.161-.152c.1-.1.2-.195.294-.3l.048-.055.611-1.279-1.587,1.424.085.523c0,.014,0,.026,0,.04l-.073-.052,0,.007.075.054-.014.013-.069-.049,0,.007v-.01l-.02-.014c-.005.013-.009.025-.013.036l0,0v0l-.01-.049-.05-.036c-.006.011-.012.021-.018.032l-.141-.1v0l.141.1a2.585,2.585,0,0,1-.143.25l-.135-.04a.255.255,0,0,0,0-.1c-.025.027-.051.051-.075.078l-.093-.027.04-.165c-.052.054-.1.107-.152.156a.128.128,0,0,1-.021,0h0a.265.265,0,0,1-.078-.025h0c-.067-.027-.049-.019-.06-.008a.9.9,0,0,1-.111.13c-.029.031-.06.062-.093.094l-.029-.017c0-.012.012-.024.015-.037l-.031.027-.011-.006-.015.012.01.006-.014.012-.01-.006-.015.011c-.078.063-.131.1-.165.129a1.351,1.351,0,0,1-.16.161,6.844,6.844,0,0,1-.572.415,3.032,3.032,0,0,1,.315-.282,1.271,1.271,0,0,0,.47-.509l0,0-.088.071-.011.009a1.271,1.271,0,0,1-.283.274c-.119.092-.236.179-.336.264a1.994,1.994,0,0,0-.276.285l.014.014,0,0-.014-.011-.01.013-.041-.042c-.027.03-.055.062-.079.088s-.046.045-.068.067c-.047.025-.093.05-.139.073l.052-.1a1.858,1.858,0,0,1,.156-.238l.012.012.24-.128c.008-.012.015-.027.022-.041-.087.05-.176.1-.268.149.02-.025.045-.048.066-.074a1.492,1.492,0,0,0,.17-.136.919.919,0,0,1-.11.07c.02-.022.039-.046.06-.068-.021.021-.041.047-.063.07-.062.033-.1.04-.089.022a.591.591,0,0,1,.089-.1,1.287,1.287,0,0,0,.226-.292,2.909,2.909,0,0,1-.245.179l.027-.025.054-.047c.058-.039.117-.077.169-.116l0,0-.061-.024-.063.037a.958.958,0,0,1-.141.168l-.02.016-.049.029v-.006a.805.805,0,0,0,.073-.06.932.932,0,0,0,.1-.116l-.022.018c-.046.03-.049.025-.024,0l-.076.043a.858.858,0,0,0,.114-.124l-.093.081-.069.059,0,0,0-.057a.787.787,0,0,0,.126-.15l-.123-.047,0-.01.125.048,0,0-.126-.049v0l.127.049.006-.007-.129-.05a.1.1,0,0,1,.006-.015l-.009.013-.126-.048,0,.008,0,0c-.008-.007-.014-.017-.021-.024s-.016-.009-.022-.015c.041,0,.082,0,.123-.009l.327.127.013-.009h0l0,0-.008.006h0l.012-.009.04-.029.178-.129a2.34,2.34,0,0,0,.2-.171.9.9,0,0,0,.233-.334l.016-.041.207-.752a2.886,2.886,0,0,1-.218.292c-.114.134-.2.218-.229.247s0,0,.1-.109a3.132,3.132,0,0,0,.363-.479l.007-.025-.013.006a3.928,3.928,0,0,1-.626.73l-.073.034-.012-.01-.01.008.008.008-.015.007,0,0-.016.014-.146.067c.044-.039.09-.075.133-.114l-.079-.093a.2.2,0,0,1-.026.032c-.014.009-.047.034-.1.078s-.162.126-.287.215c-.024,0-.046.008-.07.011l.043-.031.08-.059.149-.112a1.279,1.279,0,0,0,.121-.106.3.3,0,0,0,.036-.042l.008-.012v0a.242.242,0,0,0,.036.014.289.289,0,0,1-.057-.025l-.111.085c-.03.014.012-.027.086-.1h0a.367.367,0,0,1-.048-.03l-.021-.012c.064-.051.141-.118.225-.193l.009,0,.181-.083c.008-.007.014-.014.022-.022l-.2.1.134-.123.166-.075c.162-.163.276-.287.2-.233l.137-.13.1.068c-.073.068-.145.133-.216.2l.153-.069a1.992,1.992,0,0,0,.143-.272l.754-1.727-1.371,1.311a12.512,12.512,0,0,1-1.01.9l0,.173c0,.013,0,.021,0,.033.163-.133.317-.265.452-.395a2.14,2.14,0,0,0,.462-.58l.1.066a1.462,1.462,0,0,1-.228.338,1.008,1.008,0,0,1-.135.132c-.052.039-.04.008-.1.05a5.979,5.979,0,0,1-.569.543.569.569,0,0,1-.076.178l-.041.025.011-.016a.757.757,0,0,0,.067-.134.181.181,0,0,0,.007-.026c-.03.026-.063.053-.095.079-.01.018-.018.036-.028.051l-.057.078-.047.054-.007.008c-.053.03-.106.059-.161.087a.106.106,0,0,0-.009-.023l-.088.072a3.273,3.273,0,0,1-.4.166c0-.006,0-.01,0-.015l.36-.279-.136-.058c.085-.023.167-.041.24-.054l-.075-.182c-.049.027-.1.055-.148.079.05-.025.1-.054.146-.082l-.014-.035-.1.054.012-.01.086-.051-.011-.028a.176.176,0,0,0,.047-.1l-.067.016a4.278,4.278,0,0,0,.524-.35l0-.208-.528.086a4.17,4.17,0,0,0-1.475.574c-.433.262-.811.543-1.194.79.145-.106.506-.369.891-.634a7.508,7.508,0,0,1,.948-.554,3.611,3.611,0,0,1,.82-.234l.592-.108.005.245c.01-.008.02-.014.029-.022l-.029.024v.037l.036-.027,0-.274-.644.1a3.931,3.931,0,0,0-1.047.336,7.1,7.1,0,0,0-.891.523,12.229,12.229,0,0,1-1.469.917c-.944.444-1.771.694-2.059.829.825-.292.789-.268.34-.106-.477.169-1.359.53-2.293.957a8.171,8.171,0,0,0,1-.376,13.414,13.414,0,0,0-1.92.913c-.091.053-.17.106-.426.238s-.68.353-1.437.724c.949-.512,1.256-.69,1.513-.837s.463-.286,1.255-.7c-1.477.7-2.359,1.195-3.068,1.552-.352.18-.653.33-.945.469l-.729.35-.673.3-.187.083-.1.042-.025.011h0c.019-.007-.041.016.042-.014h0l-.007,0-.012.006-.051.022s-.032.012-.009.006l-.027.008-.061.018-.124.038-.242.08-.013-.039-.466.153-.389.121-.466.144a1.03,1.03,0,0,0-.38.038,1.644,1.644,0,0,0-.209.074l-.906.267-.387.113-.315.071c-.437.1-.8.167-1.182.239-.765.142-1.614.291-3.38.532-.451.1.4-.011,1.327-.152s1.916-.323,1.77-.267c-1.612.284-2.241.37-2.663.449s-.641.122-1.455.234c-1.174.156-1.624.2-2.089.245,1.976-.3,2.4-.382-.011-.081-.457.086-.961.165-1.488.239s-1.082.163-1.639.256a20.219,20.219,0,0,0-3.113.743c.79-.233,1.205-.317,1.037-.251-.3.075-.563.15-.8.219l-.171.05-.1.031-.079.027-.3.1-.484.177-.052.02-.072.029-.093.042-.17.076-.271.124-.056.026-.059.028-.024.012-.089.049-.248.142-.184.112-.054.031-.014.009-.024.013-.007,0-.03.021-.148.094-.505.307c-.206.153-.447.314-.809.584a1.883,1.883,0,0,0-.208.143l-.009.006-.018.016-.268.236-.039.036-.058.055-.081.078c-.054.055-.111.111-.17.168l-.178.178-.092.091-.046.046-.024.023-.012.011-.032.038-.33.4c-.431.528-.717,1.046-.659.9a8.463,8.463,0,0,1,.707-1.013l.259-.325.234-.246c.232-.244.276-.3.191-.236-.042.034-.118.1-.217.192l-.166.156-.047.043-.011.011-.04.044-.022.026-.093.109a7.88,7.88,0,0,0-.866,1.2c-.006.021-.028.068-.062.141s-.069.142-.121.244-.12.226-.192.377c-.034.075-.074.165-.1.25s-.055.151-.085.23c-.059.157-.12.322-.181.49a4.227,4.227,0,0,0-.172.572c-.069.291-.119.548-.167.789,0-.02-.009-.046-.01-.064l-.011-.073c0-.156,0-.348,0-.526-.01-.032-.021-.068-.031-.1,0-.053-.006-.077-.009-.052v.03l0-.006c-.006-.03-.006-.019-.009-.027s-.009-.009-.011,0a1.159,1.159,0,0,0,0,.192c0,.04.008.089.012.143s0,.128,0,.193c0-.027-.009-.056-.013-.083s-.011-.081-.016-.121c-.01-.079-.02-.155-.029-.229l-.014-.123c0-.035-.008-.07-.01-.1-.006-.073-.01-.143-.015-.21-.008-.091-.014.131-.018.421l0-.026c-.009-.058-.017-.122-.027-.19s-.015-.142-.024-.22c.01.151.033.381.053.513,0,.18,0,.377,0,.539,0-.178.006-.361.007-.513.01.07.02.138.029.2.006.034.01.068.015.1s.015.088.023.13c.025.127.046.243.066.349,0,.017.007.029.011.045l-.006.027v.011c-.048.569-.068.938-.026.873.017-.153.034-.305.051-.451a3.008,3.008,0,0,0,.016.418c.02-.2.038-.378.055-.544.1.338.159.5.226.712.1,1.757.206,1.792.022.063.077.21.152.4.262.648.059.126.126.27.206.445.1.211.182.36.327.617.411.568.144.141-.231-.606a9.389,9.389,0,0,1-.519-1.3c-.02-.07-.038-.138-.059-.206l0-.042a8.87,8.87,0,0,0,1,2.235,8.287,8.287,0,0,0,.853,1.157c.226.254.43.469.809.847a20.31,20.31,0,0,0,1.954,1.709c.063.087.071.129-.262-.109-.164-.12-.426-.319-.775-.62a13.169,13.169,0,0,1-1.385-1.384c.484.583-.039.063-.4-.366-.183-.214-.328-.4-.322-.38a1.667,1.667,0,0,0,.139.206c.1.133.253.338.493.622a17.1,17.1,0,0,0,2.263,2.076,25.173,25.173,0,0,0,2.779,1.9c.635.359.057-.01-.378-.3s-.737-.493.421.232a39.409,39.409,0,0,0,3.674,2.126c1.467.659.814.342.13.008s-1.4-.716-.1-.083a43.684,43.684,0,0,0,6.84,2.672l.2.06c.128.046.322.112.573.2l.257.082c.132.062.171.077.07.023a60.922,60.922,0,0,0,28.22,1.681c14.364-2.649,25.125-6.717,33.041-10.869-.674.44-1.358.87-1.928,1.239-1.309.85-2.1,1.31-.955.676l-.02-.036c1.758-1.07,2.722-1.689,3.383-2.132q1.458-.775,2.784-1.552l.16-.113.857-.611c.152-.114.264-.2.351-.267,1.494-.929,3.216-2.054,5.054-3.349q-.572.483-1.174.977c1.384-.975,2.613-1.921,3.7-2.82a80.211,80.211,0,0,0,7.965-6.813c26.3-25.9,31.262-40.274,31.262-40.274l-.177.188A221.158,221.158,0,0,0,1017.212,81c.237-.416.534-.944.709-1.238-.4.853-.72,1.465-1.447,2.8.955-1.724-.256.536.541-.9.086-.206.553-1.031,1.012-1.84.864-1.65.25-.736.328-1.021q.2-.377.34-.654l.209-.451c.1-.23.131-.319.086-.257s-.164.276-.358.65c-.082.15-.18.331-.288.53q.212-.453.418-.9l.456-.877.294-.532c.262-.483.607-1.075,1.627-3.163,0-.041-.076.072-.19.263,1.313-2.681,2.537-5.375,3.651-8.107a10.924,10.924,0,0,0,1.094-4.283m-2.231,3.414a5.822,5.822,0,0,0-.4.52c-.3.511-.583,1.008-.873,1.512a3.249,3.249,0,0,0,.323-.393c.306-.5.6-1.016.953-1.639m1.092-3.083c-.043.069-.087.14-.131.21l.01-.009.121-.2M873.339,153.5c0,.122.008-.225.014-.616,0-.042,0-.087,0-.125,0,.28-.015.5-.01.741m.016-.308c0-.115,0-.212,0-.3,0,.208,0,.348,0,.3m121.291,26.63c.237-.127.474-.251.709-.38-.234.128-.471.253-.709.38m-35.675,7.218c0,.008-.031.028-.007.031l-.029.008.065-.01h0l.016,0,.56-.092-.638.049c-.049.025.027.008.03.017m39.842-10.073c.009,0,.028-.029.011-.031s-.026.029-.011.031m.973-.649c.01,0,.026-.029.01-.031s-.027.03-.01.031m-4.843,3.388c.138-.074.278-.145.415-.22-.137.076-.277.146-.415.22m8.236-3.423-.137.118.073-.032c.086-.081.124-.124.064-.086m-8.451,3.382c-.079.046-.156.092-.229.139C994.573,179.758,994.649,179.713,994.728,179.666Zm.051,0,.153-.084-.153.084m-.276.141h0Zm.466-.277h0l0,0,0,0Zm7.811-2.853-.1.088-.127.1-.171.139c-.1.08-.149.129-.113.114l.225-.171.108-.082.084-.065.051-.043.387-.33.153-.13-.164.073c-.082.077-.206.189-.335.3m-8.831,3.238a1.771,1.771,0,0,0,.182-.048l.188-.1-.2.055a1.581,1.581,0,0,0-.165.1m21.773-5.354.516-.414c.155-.159.288-.295.4-.415l0,0,.01-.008c.274-.211.356-.338.521-.472l.162-.163a.248.248,0,0,1,.044-.032.117.117,0,0,1,.028-.011l0,0h0c.082-.048.155-.1.256-.147l.148-.078.041-.021.054-.025.089-.039.194-.085.247-.09.275-.084.32-.077c.273-.053.454-.073.8-.113.148,0,.279-.013.468-.013a5.251,5.251,0,0,1,.53.026,6.4,6.4,0,0,1,1.155.218,10.433,10.433,0,0,0,1.035.569c.2.111.524.263.433.258-.156-.1-.31-.191-.461-.268a6.223,6.223,0,0,0-.7-.307,5.134,5.134,0,0,0-.586-.188c-.334-.087-.548-.124-.591-.142a5.563,5.563,0,0,0-1.142-.05l-.125,0-.032,0-.032,0-.016,0-.059.008a6.271,6.271,0,0,1,.651.057c.487.027.858.11.733.112-.108-.016-.215-.029-.319-.039.084.019.175.041.272.067a6.358,6.358,0,0,1,.75.148l.123.034.218.07c.132.045.263.1.393.151-.193-.1-.307-.146-.263-.155a5.49,5.49,0,0,1,.928.423c-.086-.026-.195-.062-.331-.108-.253-.081-.56-.168-.852-.242.128.051.258.1.39.165a5.444,5.444,0,0,1,1.2.592c.381.293.422.064.884.456a1.1,1.1,0,0,1,.392.818c.083.14.138.243.184.324a1.347,1.347,0,0,1,.136.273,2.409,2.409,0,0,1-.025.822,4.257,4.257,0,0,1-.339.98,8.855,8.855,0,0,1-1.411,2.023,23.081,23.081,0,0,1-3.023,2.757,31.564,31.564,0,0,1-3.86,2.745,56.108,56.108,0,0,1-5.511,2.93c-.944.44-1.9.861-2.865,1.273q.286-.15.587-.315-1.621.694-3.278,1.306c-2.965,1.092-6.126,2.292-9.277,3.273a110.946,110.946,0,0,1-15.588,3.563,142.271,142.271,0,0,1-16.01,1.808c-2.6.088-5.214.131-7.82.2l-3.918-.007h-1.957c-.653,0-1.305,0-1.957-.022-5.258-.1-10.479-.318-15.778-.564-6.652-.27-13.471-1.053-20.192-1.569-1.069-.085-2.182-.2-3.305-.323l-3.371-.408c-2.38-.266-4.758-.6-7.127-.87-2.4-.3-3.017-1.151-5.493-1.563a3.124,3.124,0,0,0-1.466-.072,4.921,4.921,0,0,1-1.412-.02,10.488,10.488,0,0,0-1.84-.127c-.339-.047-.229-.017-.136.012q-.069.01-.128.023c-.116-.013-.29-.035-.548-.07a14.821,14.821,0,0,1-1.622-.342c-.327-.085-.914-.2-3.1-.649-2.173-.426-.731-.074-2.368-.377-2.03-.442-3.464-.674-4.707-1.031-1.6-.359-.991-.18-1.2-.195-.715-.183-1.226-.329-1.667-.456s-.783-.229-1.21-.366-.875-.282-1.508-.52a20.915,20.915,0,0,1-2.5-1.1c-.3-.182,1.054.492,1.134.483a17.3,17.3,0,0,1-4.205-2.57,8.066,8.066,0,0,1-.859-.861c.037.027.293.309.568.547a5.083,5.083,0,0,0,.524.447c0-.01-.083-.073-.256-.234s-.449-.409-.817-.819a13.834,13.834,0,0,0,1.734,1.532,15.683,15.683,0,0,0,2.225,1.386,3.3,3.3,0,0,0-.555-.354c-.305-.194-.59-.386-.464-.331a17.117,17.117,0,0,1-1.757-1.257c-.307-.237-.368-.283-.261-.146a12.912,12.912,0,0,1-1.909-2.143,15.513,15.513,0,0,1-1.1-1.8c-.514-.987-.7-1.429-.571-1.021a22.383,22.383,0,0,1-.87-2.275c-.593-1.583-1.793-.7-3.007-3.418-.03-.129-.071-.3-.126-.509-.61-2.028-.818-2.621-.767-2.284l-.348-1.187-.024-.082.011-.09a4.675,4.675,0,0,1,.253-1.1,3.223,3.223,0,0,1,.626-1,3.107,3.107,0,0,0,.57-.726,2.6,2.6,0,0,0,.222-.866l.037-.013.02-.2h.028l.04-.353.54.308a.349.349,0,0,0,.055-.027.146.146,0,0,0-.068,0c-.038.013.03-.01.113-.066a1.2,1.2,0,0,1,.442-.19.761.761,0,0,1,.168,0,2.961,2.961,0,0,1,.812-.817,3.344,3.344,0,0,1,1.443-.5c.97-.12,1.83-.055,2.685-.223,1.612-.309.711-.152-.144-.01-.222.04-.409.054-.564.069s-.285.015-.326.015,0-.008.158-.025a8.284,8.284,0,0,0,.861-.129l2.454-.394a20.406,20.406,0,0,1,2.344-.233l1.087-.077c.02-.006-.246,0-.542.011-.6.025-1.382.082-.553-.016a14.444,14.444,0,0,1,3.885.069,12.332,12.332,0,0,1,1.514.306c.272.073.562.162.876.278.331.122.641.257,1,.4,3.009,1.292-1.575-.6-.049.112-.429-.18-.816-.356-1.175-.481s-.665-.212-.932-.28a9.083,9.083,0,0,0-1.136-.206c-.457-.048-.431-.017-.315.03a11.787,11.787,0,0,1,2.9.738c.566.221.872.328,1.228.459.7.262,1.606.6,4.953,2.082l-1.255-.569-1.386-.615c-.834-.373-1.327-.608-.608-.356,1.086.479,1.461.635,1.887.812l2.528,1.069c-1.269-.51-1.206-.457,1.082.527-.247-.089-.6-.241-1.129-.471l-2.192-.948c3.7,1.643.275.245,2.144,1.119,1.3.548.948.362,1.13.414l4.4,1.944-3.266-1.521a14.694,14.694,0,0,1,2.054.846c1.1.48,2.251.99,2.379,1.015,1.081.489,2.036,1,2.249,1.132a17.622,17.622,0,0,1-2.283-1.057c-.178-.056.619.311,1.455.728s1.721.862,1.772.909c.849.421,1.3.621,1.594.755s.394.164.552.227c.319.119.81.37,3.311,1.479.189.058-.228-.139-1.08-.516,1.948.819,4.634,2.022,6.661,2.65,2.6.954,2.128.818-.028.077.492.2.978.392,2.245.834,1.5.492,1.175.358,3.163.99l.485.129-1.029-.333c-1.021-.335-1.954-.656-1.444-.52,1.509.507,2.417.8,3.131,1.029,9.74,2.576,30.854,7.66,44.275,7.23,1.278-.042,2.655-.123,4.056-.228-.049.025.027.008.03.017s-.031.028-.007.031l-.029.008.065-.01h0l.016,0,.56-.092c1.07-.085,2.145-.182,3.194-.285-.136.022-.348.051-.653.09-.591.077-1.356.184-1.717.24-.419.072-1.938.181-1.3.158a13.057,13.057,0,0,0,1.4-.121c.126-.015.48-.049.562-.051.877-.024,2.023-.155,3.032-.274q6.941-.769,13.8-2.1c2.291-.454,4.578-.923,6.84-1.528,2.267-.581,4.509-1.31,6.738-2.093,1.055-.383,2.113-.78,3.174-1.185l-.447.24.447-.24.3-.115c-.354.19-.708.38-1.065.565.357-.185.711-.375,1.065-.565,2.368-.909,4.744-1.867,7.106-2.87.331-.14.661-.29.993-.435l-.389.334-.718.547-.566.43.051.069a21.446,21.446,0,0,1-2.079,1.592l.213.333-.609.407-.336.223-.087.059-.109.069-.185.115c-.6.337-1.378.811-2.386,1.363-.488.265-1.02.548-1.582.837l-.87.451-.444.23-.252.128-.232.11c-1.071.515-2.212,1.047-3.364,1.567v.008a.564.564,0,0,1-.055.132l2.056-.359,2.336-.425c.714-.148,1.36-.291,1.917-.418,1-.156,4.442-.956,2.36-.412a23.476,23.476,0,0,0,2.444-.647,5.44,5.44,0,0,1,1.011-.331c.473-.1,2.351-.613,3.73-1.063s2.268-.79.835-.341c2-.683,2.706-.974,2.861-1.007s-.263.146-.58.295c.249-.082.6-.212,1.136-.435s1.219-.5,2.144-.967c-.453.256.208-.042,1.076-.443l.682-.3.332-.142.32-.143c.411-.185.75-.344.9-.422l.54-.239c-.059.048-.121.094-.18.144l-.029.023c-.094.081-.107.091-.065.069s.05-.012-.065.066l-.042.03-.023.016c.078-.042-.027.022-.02.017h0s-.007,0,.088-.025a.2.2,0,0,1,.077-.011l-.064.02a.776.776,0,0,0,.114-.023,10.937,10.937,0,0,1-1.5.77c.567-.241,2.142-.749,2.146-.751a3.584,3.584,0,0,0,1.114-.561,1,1,0,0,1,.174-.1c.075-.029.165-.031.235-.066l.407-.2a5.279,5.279,0,0,0,.537-.31,2.44,2.44,0,0,0,.813-.753c.076-.1.114-.2.181-.306a1.362,1.362,0,0,0,.1-.284c.018-.174-.069-.29,0-.517a.768.768,0,0,1-.077-.137l-.017-.039,0-.009v0c-.021.01-.007,0-.012,0l0,0-.014-.016-.054-.067a1.679,1.679,0,0,0-.178-.22.205.205,0,0,0-.185,0c-.064.043.026.076.055.111a.308.308,0,0,1,.045.048.249.249,0,0,1,.02.052.765.765,0,0,1-.093-.01.434.434,0,0,1-.089-.034.476.476,0,0,0-.3-.141.894.894,0,0,1-.41-.051c-.1-.077-.29.039-.385-.013a.941.941,0,0,0-.219-.009,1.882,1.882,0,0,0,.2-.074c.03-.016.049-.075.043-.075-.152,0-.121-.089-.2-.12a1.12,1.12,0,0,0-.3.11,1.065,1.065,0,0,1-.16.047,1.107,1.107,0,0,0-.274.059c-.1.056-.029.085.034.106a.768.768,0,0,1-.091.056,2.195,2.195,0,0,1-.32.11,1.876,1.876,0,0,1-.206.048,3.2,3.2,0,0,0-.4.079.036.036,0,0,1-.025-.012c.008-.014.016-.034.029-.039a.853.853,0,0,0,.094-.025c.078-.041.2.013.24-.1a.027.027,0,0,0,0-.026c-.081-.087-.17.121-.253.025,0,0-.024,0-.03.008m.2.138.269-.2c.088-.069.177-.134.259-.2l.212-.208.2-.2c.133-.094.264-.19.4-.286l.252-.183-.025-.028-.654.46,0,0,0,0-.424.4m2.133.155c.02-.02.046-.055.033-.069-.073-.052-.124-.13-.245-.155s-.25,0-.328-.062a.412.412,0,0,0-.1.023c-.021.026-.045.066-.026.077a1.5,1.5,0,0,1,.254.163c.169-.064.232.017.34.039a.121.121,0,0,0,.07-.016m-24.079,5.633Zm-.6.4h0c.161-.077.32-.155.486-.237-.165.082-.325.161-.486.237m-1.672,1.009c0,.021-.005.044-.008.067,0-.023,0-.046.008-.067m-1.912,1.047a.038.038,0,0,1-.029.022.038.038,0,0,0,.029-.022m-.128.076-.032-.01.032.01m-.137.06a.018.018,0,0,1-.005-.014.018.018,0,0,0,.005.014l0,0,0,0m-.037.021-.007-.015.007.015m-.07.031,0-.012,0,.012m-.046.009h0a.061.061,0,0,1,.022,0,.061.061,0,0,0-.022,0m-.122.06,0,.009,0-.009m-.159.079h0l.09-.041v0l-.09.041m-.162.137c-.006,0-.011,0-.017-.011s.011.012.017.011m-.11,0v0Zm-.047.044a.082.082,0,0,1,0-.021.082.082,0,0,0,0,.021m.023.021a.3.3,0,0,1-.038-.035.3.3,0,0,0,.038.035m-.061-.022h0Zm-4.931.729c.054-.023.1-.046.151-.067-.046.021-.1.044-.151.067m.192-.085.145-.067-.145.067m.839,1.069.021-.007h0Zm.641-1.414h0l.214-.1-.214.1m.081-.023h0Zm.359.995a.014.014,0,0,0,0,.011.014.014,0,0,1,0-.011m.04-.017,0,0,0,0m.037-.016a.157.157,0,0,1,.015.031.157.157,0,0,0-.015-.031m.019-.008.022.029-.022-.029m1-.435.028.047Zm-.949-.724,1.053-.45-1.053.45-.434.183.434-.183m1.983-.607c-.069.038-.142.077-.22.118.078-.041.151-.08.22-.118m-.026.055h0l.012-.008-.034.014.034-.014-.012.008m.011,0,.024-.013-.024.013m.214.717.01.008-.01-.008m0-.79.016-.022Zm.073.791a.09.09,0,0,1,.008-.026.09.09,0,0,0-.008.026m.038-.055s.006,0,.008.009-.006-.007-.008-.009m.074-.035a.1.1,0,0,0,.008.037.1.1,0,0,1-.008-.037m.081-.04,0,0,0,0m.007,0,.006.008-.006-.008m.154-.058v0l-.007-.013.007.013m7.975-4.323-.818.307-.7.282c.238-.081.474-.156.714-.245.55-.2,1.094-.415,1.635-.63.147-.059.283-.124.424-.185-.145.05-.282.093-.437.151l-.817.319m-1.4.679.209-.05c.058-.028.179-.08.166-.079-.033,0-.118.025-.181.038l-.194.092m-9.191,3.673-.434.183.434-.183m5.185-2.234a1.905,1.905,0,0,0,.192-.043l.375-.148-.208.047-.359.145m2.683-1.106-.205.053a1.576,1.576,0,0,0-.165.094c-.009.008.116-.029.181-.046l.189-.1m-8.381,2.377a.993.993,0,0,0,.195.019l.2-.084-.22-.008a1.1,1.1,0,0,0-.173.074m8.291-1.982.447-.24ZM888.135,193.421l.535.031.007-.048c-.233-.026-.491-.061-.677-.072-.059,0,.084.058.135.089m17.233,3.749a9.653,9.653,0,0,0,1.179.239,9.375,9.375,0,0,0-1.179-.239m-12.907-3.506c-.27-.036-.569-.074-.686-.077,0,0,.059.013.152.028l1.039.124a1.136,1.136,0,0,0-.148-.026l-.357-.049m-35-19.162-.216-.673c.072.241.145.462.216.673m159.1,2.817a1.474,1.474,0,0,0,.423-.165,2,2,0,0,0,.215-.11c.115-.058.239-.124.354-.2-.021.006-.04.015-.061.023a2.893,2.893,0,0,0-.311.137.975.975,0,0,1-.225.112c-.1.054-.21.107-.317.159-.027.013-.053.027-.08.04m1.645-.964-.263.1c-.016.006-.035.039-.076.08.1-.039.189-.076.28-.12.021-.009.04-.041.059-.061m-1.95-1.64a.226.226,0,0,0-.068-.027c-.045-.006-.1-.021-.112-.011m.812-.372-.176.053a.58.58,0,0,0,.13.019.9.9,0,0,0,.144-.036l-.1-.036m1.754,1.541a.239.239,0,0,0-.065.027c-.023.031-.057.066-.088.1a1.083,1.083,0,0,0-.092.1c-.008.01.013.019.021.027a2.529,2.529,0,0,0,.223-.257m.264-.989-.039.046c.024.051.032.07.039.088a.172.172,0,0,0,.025-.076.169.169,0,0,0-.025-.059m-161.069.6c-.124-.278-.247-.593-.371-.953.395,1.224.526,1.6.371.953m158.441-1.268,0,0h0Zm-154.085,8.1c.076.152.3.564.483.859.2.31.312.467.152.21-.212-.3-.921-1.641-.635-1.068m33.073-8.125c-.151-.076-.547-.266-.868-.414s-.5-.228-.225-.09a10.122,10.122,0,0,0,1.093.5m120.508.322c.264-.206.417-.336.181-.158l-.324.244m1.943,2.155h0a.44.44,0,0,0-.089.035.5.5,0,0,0-.063.067l.147-.057,0-.045m-1.189.678,0,0,.026,0,.008-.021,0-.007h-.024Zm-1.031.174-.018.017.039-.017s.01-.01.016-.016Zm-.1.135.01,0a.275.275,0,0,0,.072-.018.192.192,0,0,0,.044-.035l.029-.023-.089.028-.065.05m-5.465-5.41.375-.117-.382.094-.1.025.014.027.094-.029m.034.152-.065.019.028.06.064-.019-.027-.06m-.05-.11-.056.037.026.059.056-.035c-.009-.02-.019-.041-.027-.06m-15.89,7.932h0c.357-.185.711-.375,1.065-.565-.354.19-.708.38-1.065.565m-5.5,2.182.012-.008-.012.008m1.07.305.09-.041-.09.041m4.885-2.787Zm-9.142,4.676.021-.007Zm4.539-2.029h0a.061.061,0,0,1,.022,0,.061.061,0,0,0-.022,0m-1.34-.17h0l.024-.013-.024.013m-2.477.762Zm1.561-.655-1.053.45,1.053-.45m-1.643.677h0l.214-.1-.214.1m7.9-2.867c.161-.077.32-.155.486-.237-.165.082-.325.161-.486.237m24.139-6.315a.412.412,0,0,0-.1.023c-.021.026-.045.066-.026.077a1.5,1.5,0,0,1,.254.163c.169-.064.232.017.34.039a.121.121,0,0,0,.07-.016c.02-.02.046-.055.033-.069-.073-.052-.124-.13-.245-.155s-.25,0-.328-.062M1000.13,231.62H988.948V210.875h-6.7v26.355h17.883Zm-57.567-20.745H930.1v26.355h12.915c6.211,0,10.128-2.824,10.128-7.3a6.5,6.5,0,0,0-5.422-6.665,5.9,5.9,0,0,0,4.518-5.8c0-4.028-3.765-6.588-9.676-6.588m-5.8,10.541v-5.421h5.422c1.958,0,3.2.979,3.2,2.672s-1.242,2.749-3.2,2.749Zm0,10.656v-5.835h5.422c2.485,0,4.028,1.092,4.028,2.861,0,1.882-1.543,2.974-4.028,2.974Zm-35.089-.452H890.492V210.875h-6.7v26.355h17.884Zm76.117-64.492c0-.011,0-.023-.006-.034s.026-.036.041-.052a.73.73,0,0,1-.058-.064,9.558,9.558,0,0,0-1.52-3.935,11.12,11.12,0,0,0-3.9-3.585,12.175,12.175,0,0,0-2.731-1.1l-.729-.172c-.245-.047-.49-.084-.737-.123s-.493-.059-.741-.081l-.371-.029c-.122-.009-.272-.009-.408-.011l-.417,0-.208,0c-.065,0-.152,0-.186,0l-.538.033-.134.01-.163.011-.042.006-.086.011-.343.048-.683.1a11.7,11.7,0,0,0-1.357.3c-.225.063-.447.114-.669.191l-.659.24a14.743,14.743,0,0,0-4.2,2.208,5.163,5.163,0,0,0-2.1,3.624.393.393,0,0,0,.287.007,5.162,5.162,0,0,0-.52.868,4.525,4.525,0,0,0-.367,1.088,3.758,3.758,0,0,0-.064,1.116c.262.07.365-.3.717.065a2,2,0,0,0-.1.435,15.51,15.51,0,0,0-2.5,1.757,5.769,5.769,0,0,0-2.159,3.851c.268.2.443-.125.764.405-.674,1.007-.2,2.266.36,3.445.211-.167.529.068.684-.286.848,1.08,1.654-.01,2.511,1.258a5,5,0,0,1,1.927.176,4.491,4.491,0,0,0,2.448-1c.333-.266.643-.518.948-.8a9.494,9.494,0,0,1,.884-.688l.331-.213.311-.149a2.549,2.549,0,0,1,.307-.139l.28-.087a2.309,2.309,0,0,1,.508-.106l.061-.012.03-.007.016,0h.681a.327.327,0,0,1,.04,0c.09.01.179.017.27.02l.069,0,.09.012.184.023c.25.02.489.077.737.117a11.933,11.933,0,0,1,1.5.413c1.108.372,2.372.771,3.815,1.233a43.46,43.46,0,0,0,4.722,1.271,3.68,3.68,0,0,1,.75.282,2.166,2.166,0,0,0,.859.182,2.181,2.181,0,0,1,.571-1.179c-.225-.266-.131-.49-.289-.739a11.267,11.267,0,0,0-1.594-4.854,13.326,13.326,0,0,0-4.313-4.419c-.326-.207-.668-.4-1.017-.581.845.027,1.7.038,2.651.076.523.021,1.073.057,1.64.1.782.237,1.593.468,2.431.656.467.111.744.415,1.322.419a1.78,1.78,0,0,1,.428-.99c-.192-.229-.123-.417-.261-.629M999.6,260.882v-10.4h-1.539v8.276l-5.586-8.276h-1.858v10.4h1.553v-8.275l5.573,8.275Zm-10.922-5.2a5.283,5.283,0,1,0-5.282,5.337,5.255,5.255,0,0,0,5.282-5.337m-9.025,0a3.755,3.755,0,1,1,3.743,4.062,3.9,3.9,0,0,1-3.743-4.062m-3.48-5.2h-1.539v10.4h1.539Zm-2.786,1.275v-1.275h-7.971v1.275h3.216v9.122h1.538v-9.122Zm-8.815,7.68-1.012-1.012a3.345,3.345,0,0,1-2.828,1.317,4.068,4.068,0,0,1,0-8.11,3.4,3.4,0,0,1,2.841,1.331l1.013-1.012a5.082,5.082,0,0,0-3.854-1.594,5.33,5.33,0,0,0,0,10.66,5.066,5.066,0,0,0,3.84-1.58m-10.645-8.955h-1.539v6.322a2.65,2.65,0,1,1-5.268,0v-6.322h-1.539v6.322c0,1.677.692,4.214,4.186,4.214s4.159-2.537,4.159-4.214Zm-12.378,7.1a3.7,3.7,0,0,0-1.441-7.1h-4.035v10.4h1.539v-3.022h2.426l2.038,3.022h1.7Zm-3.937-1v-4.825H940.1a2.429,2.429,0,0,1,0,4.825Zm-2.647-4.825v-1.275H927v1.275h3.216v9.122h1.539v-9.122Zm-9.162,7.333a2.818,2.818,0,0,0,.055-2.023c-.526-1.4-2.01-1.706-3.327-2.107-1.109-.333-1.9-.513-2.176-1.275a1.547,1.547,0,0,1,.1-1.165,2.051,2.051,0,0,1,1.7-.888,3.555,3.555,0,0,1,2.842,1.47l1.012-1.013a5.183,5.183,0,0,0-3.854-1.732c-.236,0-2.288.042-3.092,1.567a2.688,2.688,0,0,0-.166,2.189c.486,1.359,1.969,1.678,3.258,2.066,1.136.347,1.94.527,2.232,1.331a1.6,1.6,0,0,1-.029,1.082,2.165,2.165,0,0,1-2.2,1.151,3.416,3.416,0,0,1-2.828-1.47l-1.025,1.026a5.236,5.236,0,0,0,3.853,1.719,3.786,3.786,0,0,0,3.646-1.927m-9.44,1.788v-10.4h-1.539v8.276l-5.586-8.276h-1.858v10.4h1.553v-8.275l5.573,8.275Zm-10.922-5.2a5.282,5.282,0,1,0-5.282,5.337,5.255,5.255,0,0,0,5.282-5.337m-9.024,0a3.755,3.755,0,1,1,3.742,4.062,3.9,3.9,0,0,1-3.742-4.062m-2.8,3.757a5.068,5.068,0,0,1-3.839,1.58,5.33,5.33,0,0,1,0-10.66,5.081,5.081,0,0,1,3.853,1.594l-1.011,1.012a3.4,3.4,0,0,0-2.841-1.331,4.068,4.068,0,0,0,0,8.11,3.346,3.346,0,0,0,2.828-1.317Z" transform="translate(-856.57 -61.021)"/></svg>